<svg
        width="1242"
        height="2436"
        viewBox="0 0 328.61249 644.525"
        xmlns="http://www.w3.org/2000/svg">
    <rect
            style="fill:#4c6dff;fill-opacity:1;stroke-width:0.264583"
            width="328.61249"
            height="644.52502"
            x="0"
            y="0"/>
    <g
        style="fill:currentColor"
        id="g1"
        transform="matrix(1.6804096,0,0,1.6804096,63.481674,221.43792)">
      <ellipse
         style="fill:#ffffff;stroke-width:1.48148;fill-opacity:1"
         id="path2-5-5"
         cx="60"
         cy="60"
         rx="50"
         ry="50" />
      <path
        d="m 108.16177,61.29313 c -0.40794,-1.652447 -1.32757,-2.533752 -4.20398,-2.864241 -2.87641,-0.330489 -10.067412,5.948808 -16.373368,6.940276 -6.195315,0.991468 -6.195315,-0.110163 -6.527207,-2.313426 -0.331892,-2.203262 2.306652,-3.419088 7.341151,-8.012405 5.034509,-4.593328 15.087274,-12.113976 13.014904,-16.113315 -2.813516,-5.429631 -6.195323,-2.643915 -6.195323,-2.643915 0,0 -14.271363,13.329736 -19.913534,16.744793 -5.642171,3.415056 -2.876401,-1.872773 -2.876401,-1.872773 0,0 11.173701,-20.820828 12.169389,-22.913927 0.995677,-2.093099 1.677229,-7.247168 -3.429555,-8.262233 -4.696521,-0.933522 -9.071726,8.702886 -13.386328,16.744793 -3.113051,5.802368 -4.982623,10.825332 -6.469866,11.938926 -0.57403,0.429824 -1.212768,0.124364 -1.74644,-0.0088 -1.366512,-0.123426 -0.206637,-5.504564 0.244516,-11.003598 0.551428,-6.721403 1.357639,-15.47384 1.357639,-15.47384 0,0 1.554761,-6.934383 -3.423625,-7.154709 -5.089017,-0.110163 -6.114321,4.626851 -6.114321,4.626851 0,0 -2.453747,21.645354 -5.123899,29.227958 -0.713392,2.025856 -3.439081,7.586052 -3.761182,9.832267 -0.722552,5.038717 -5.4795,6.13343 -5.4795,6.13343 -4.923015,-5.551394 -9.08915,-19.966303 -18.271508,-18.534183 -9.1823573,1.432121 -1.880724,8.372396 -1.880724,8.372396 0,0 7.412265,5.728482 9.51425,19.609034 1.991355,13.990714 5.531541,16.414303 5.531541,16.414303 0,0 8.29731,11.677288 21.904899,12.558588 13.71822,0.88131 22.789946,-10.024837 27.104548,-18.507396 4.314601,-8.482559 11.538229,-13.005141 18.507981,-15.852648 6.859113,-3.485858 8.882083,-6.007425 8.485943,-7.612094 z"
        id="path1-6-7"
        style="fill:#4c6dff;stroke-width:1.10397"/>
      <path
        d="m 33.482593,81.458685 c 0.210763,-0.853742 0.685889,-1.309068 2.172004,-1.479821 1.486103,-0.170753 5.201373,3.073485 8.459384,3.585732 3.200837,0.512247 3.200837,-0.05695 3.372315,-1.195248 0.171466,-1.138326 -1.191748,-1.766487 -3.792845,-4.139654 -2.601107,-2.373156 -7.794925,-6.258741 -6.724217,-8.325026 1.453611,-2.805248 3.200847,-1.365989 3.200847,-1.365989 0,0 7.373367,6.886879 10.288422,8.651285 2.915055,1.764405 1.486115,-0.967574 1.486115,-0.967574 0,0 -5.772948,-10.757196 -6.287381,-11.838601 -0.514423,-1.081416 -0.866549,-3.74429 1.771896,-4.268722 2.426487,-0.482316 4.686951,4.496385 6.916118,8.651275 1.608373,2.997824 2.574301,5.59297 3.342688,6.168318 0.296579,0.222067 0.626579,0.06423 0.902304,-0.0044 0.706013,-0.06378 0.106759,-2.843971 -0.126329,-5.685077 -0.284896,-3.472639 -0.701432,-7.994636 -0.701432,-7.994636 0,0 -0.803269,-3.582681 1.768831,-3.696512 2.629274,-0.05696 3.158997,2.390484 3.158997,2.390484 0,0 1.26774,11.183175 2.647295,15.100773 0.368578,1.046671 1.776819,3.919372 1.94323,5.079897 0.373313,2.603275 2.831009,3.168863 2.831009,3.168863 2.543502,-2.868151 4.695957,-10.315695 9.440072,-9.575785 4.744114,0.739922 0.971681,4.325643 0.971681,4.325643 0,0 -3.829585,2.959653 -4.915581,10.131106 -1.028844,7.228386 -2.857903,8.480544 -2.857903,8.480544 0,0 -4.286845,6.03312 -11.317277,6.48846 -7.087585,0.45532 -11.774537,-5.179392 -14.003703,-9.561945 -2.229156,-4.382564 -5.961286,-6.719178 -9.562241,-8.190363 -3.543792,-1.800979 -4.588977,-3.103757 -4.384299,-3.932823 z"
        id="path1-6-8-2"
        style="fill:#ffffff;fill-opacity:1;stroke-width:0.57037"/>
    </g>
    <text
            style="font-size:50.8px;text-align:start;writing-mode:lr-tb;direction:ltr;text-anchor:start;fill:#4c6dff;fill-opacity:1;stroke-width:0.264583"
            x="77.874313"
            y="160.99513"
            id="text1"><tspan
         id="tspan1"
         style="font-style:normal;font-variant:normal;font-weight:normal;font-stretch:normal;font-family:'DejaVu Sans';-inkscape-font-specification:'DejaVu Sans';fill:#ffffff;fill-opacity:1;stroke-width:0.264583"
         x="77.874313"
         y="160.99513">Granta</tspan></text>
    <text
            style="font-style:normal;font-variant:normal;font-weight:normal;font-stretch:normal;font-size:19.7556px;font-family:'DejaVu Sans';-inkscape-font-specification:'DejaVu Sans';text-align:start;writing-mode:lr-tb;direction:ltr;text-anchor:start;fill:#ffffff;fill-opacity:1;stroke-width:0.264583"
            x="164.62941"
            y="498.75296"
            id="text2"><tspan
         id="tspan2"
         style="font-size:19.7556px;text-align:center;text-anchor:middle;stroke-width:0.264583"
         x="164.62941"
         y="498.75296">The Cambridge Community</tspan>
        <tspan
                style="font-size:19.7556px;text-align:center;text-anchor:middle;stroke-width:0.264583"
                x="164.62941"
                y="523.44745"
                id="tspan3">Events App</tspan></text>
</svg>
