<?xml version="1.0" encoding="UTF-8" standalone="no"?>
<!-- Created with Inkscape (http://www.inkscape.org/) -->

<svg
   width="1242"
   height="2436"
   viewBox="0 0 328.61249 644.525"
   version="1.1"
   id="svg1"
   xml:space="preserve"
   inkscape:version="1.4.2 (2aeb623e1d, 2025-05-12)"
   sodipodi:docname="splash.svg"
   xmlns:inkscape="http://www.inkscape.org/namespaces/inkscape"
   xmlns:sodipodi="http://sodipodi.sourceforge.net/DTD/sodipodi-0.dtd"
   xmlns="http://www.w3.org/2000/svg"
   xmlns:svg="http://www.w3.org/2000/svg"><sodipodi:namedview
     id="namedview1"
     pagecolor="#ffffff"
     bordercolor="#000000"
     borderopacity="0.25"
     inkscape:showpageshadow="2"
     inkscape:pageopacity="0.0"
     inkscape:pagecheckerboard="0"
     inkscape:deskcolor="#d1d1d1"
     inkscape:document-units="mm"
     inkscape:zoom="0.31882431"
     inkscape:cx="1976.0099"
     inkscape:cy="1256.1777"
     inkscape:window-width="1854"
     inkscape:window-height="1011"
     inkscape:window-x="66"
     inkscape:window-y="32"
     inkscape:window-maximized="1"
     inkscape:current-layer="layer1" /><defs
     id="defs1" /><g
     inkscape:label="Layer 1"
     inkscape:groupmode="layer"
     id="layer1"><rect
       style="fill:#4c6dff;fill-opacity:1;stroke-width:0.264583"
       id="rect1"
       width="328.61249"
       height="644.52502"
       x="0"
       y="0" /><g
       style="fill:currentColor"
       id="g1"
       transform="matrix(1.6804096,0,0,1.6804096,63.481674,221.43792)"><ellipse
         style="fill:#ffffff;fill-opacity:1;stroke-width:1.48148"
         id="path2"
         cx="60"
         cy="60"
         rx="47.521793"
         ry="45.205479" /><path
         d="m 102.37112,61.92808 c 0,-1.5 -1.2,-2.3 -3.800003,-2.6 -2.600004,-0.3 -9.100004,5.4 -14.800004,6.3 -5.59999,0.9 -5.59999,-0.1 -5.89999,-2.1 -0.3,-2 7.89999,-7.8 7.89999,-7.8 0,0 12.900004,-9.1 10.5,-14.1 -2.4,-5 -5.6,-2.4 -5.6,-2.4 0,0 -12.89999,12.1 -17.99999,15.2 -5.1,3.1 -2.6,-1.7 -2.6,-1.7 0,0 10.09999,-18.9 11,-20.8 0.9,-1.9 1.19999,-7.000001 -3.1,-7.500001 -4.3,-0.5 -8.2,7.900001 -12.1,15.200001 -3.9,7.3 -4.8,7.4 -6.9,7.3 -2,-0.1 0.5,-20.400001 0.5,-20.400001 0,0 1.3,-6.399999 -3.2,-6.599999 -4.6,-0.1 -5,4.199999 -5,4.199999 L 45.671118,51.62808 c -2.2,12.4 14.900005,10 14.900005,10 0,0 4.2,-2.7 4.1,0.7 -0.1,3.3 -2.3,2.8 -2.3,2.8 -5.5,-0.2 -6.2,1.2 -6,2.7 -1,1.8 10.5,7.7 10.5,7.7 0,0 3.4,1.5 1.8,3.2 -1.6,1.7 -2.9,0.9 -2.9,0.9 -3.5,-2.6 -6.8,-4.4 -7.9,-3.4 -1.1,1 5.6,6.7 5.6,6.7 0,0 2.7,2.1 1.4,4.2 -1.3,2.1 -3.5,-0.2 -3.5,-0.2 0,0 -4.9,-6.2 -6.7,-6.9 -1.7,-0.7 0,4 1.3,8.1 1.2,4.2 -0.5,4 -1.3,3.9 -1.6,-0.1 -1.8,-2.1 -3,-5.2 -1.200005,-3.1 -1.200005,-4.2 -2.200005,-4.9 -1,-0.7 -2.1,0.4 -2.1,2.9 0,2.5 0.5,4.9 -1.7,4.8 -2.2,-0.1 -1.1,-4.9 -1.8,-7.2 -0.7,-2.1 -1,-2.8 -3.2,-5.8 -2.4,-3.3 -2.2,-5.4 -2.2,-9.6 0,-4.2 -1.2,-8.4 -2.7,-10.7 -1.5,-2.3 -5.7,-9.3 -14.000001,-8 -8.3,1.3 -1.7,7.6 -1.7,7.6 0,0 6.7,5.2 8.600001,17.8 1.8,12.7 5,14.9 5,14.9 0,0 7.5,10.6 19.800005,11.4 12.4,0.8 20.6,-9.1 24.5,-16.8 3.9,-7.7 12.79999,-11.7 19.1,-13.6 6.199997,-1.9 5.299997,-6.2 5.299997,-7.7 z"
         id="path1"
         style="fill:#4c6dff;fill-opacity:1" /></g><text
       xml:space="preserve"
       style="font-size:50.8px;text-align:start;writing-mode:lr-tb;direction:ltr;text-anchor:start;fill:#4c6dff;fill-opacity:1;stroke-width:0.264583"
       x="77.874313"
       y="160.99513"
       id="text1"><tspan
         sodipodi:role="line"
         id="tspan1"
         style="font-style:normal;font-variant:normal;font-weight:normal;font-stretch:normal;font-family:'DejaVu Sans';-inkscape-font-specification:'DejaVu Sans';fill:#ffffff;fill-opacity:1;stroke-width:0.264583"
         x="77.874313"
         y="160.99513">Granta</tspan></text><text
       xml:space="preserve"
       style="font-style:normal;font-variant:normal;font-weight:normal;font-stretch:normal;font-size:19.7556px;font-family:'DejaVu Sans';-inkscape-font-specification:'DejaVu Sans';text-align:start;writing-mode:lr-tb;direction:ltr;text-anchor:start;fill:#ffffff;fill-opacity:1;stroke-width:0.264583"
       x="164.62941"
       y="498.75296"
       id="text2"><tspan
         sodipodi:role="line"
         id="tspan2"
         style="font-size:19.7556px;text-align:center;text-anchor:middle;stroke-width:0.264583"
         x="164.62941"
         y="498.75296">The Cambridge Community</tspan><tspan
         sodipodi:role="line"
         style="font-size:19.7556px;text-align:center;text-anchor:middle;stroke-width:0.264583"
         x="164.62941"
         y="523.44745"
         id="tspan3">Events App</tspan></text></g></svg>
