<svg
   width="85"
   height="81"
   fill="currentColor"
   viewBox="0 0 120 120"
   xmlns="http://www.w3.org/2000/svg">
  <ellipse
     style="fill:#4c6dff;stroke-width:1.48148;fill-opacity:1"
     id="path2"
     cx="60"
     cy="60"
     rx="47.521793"
     ry="45.205479" />
  <path
     d="m 102.37112,61.92808 c 0,-1.5 -1.2,-2.3 -3.800003,-2.6 -2.600004,-0.3 -9.100004,5.4 -14.800004,6.3 -5.59999,0.9 -5.59999,-0.1 -5.89999,-2.1 -0.3,-2 7.89999,-7.8 7.89999,-7.8 0,0 12.900004,-9.1 10.5,-14.1 -2.4,-5 -5.6,-2.4 -5.6,-2.4 0,0 -12.89999,12.1 -17.99999,15.2 -5.1,3.1 -2.6,-1.7 -2.6,-1.7 0,0 10.09999,-18.9 11,-20.8 0.9,-1.9 1.19999,-7.000001 -3.1,-7.500001 -4.3,-0.5 -8.2,7.900001 -12.1,15.200001 -3.9,7.3 -4.8,7.4 -6.9,7.3 -2,-0.1 0.5,-20.400001 0.5,-20.400001 0,0 1.3,-6.399999 -3.2,-6.599999 -4.6,-0.1 -5,4.199999 -5,4.199999 L 45.671118,51.62808 c -2.2,12.4 14.900005,10 14.900005,10 0,0 4.2,-2.7 4.1,0.7 -0.1,3.3 -2.3,2.8 -2.3,2.8 -5.5,-0.2 -6.2,1.2 -6,2.7 -1,1.8 10.5,7.7 10.5,7.7 0,0 3.4,1.5 1.8,3.2 -1.6,1.7 -2.9,0.9 -2.9,0.9 -3.5,-2.6 -6.8,-4.4 -7.9,-3.4 -1.1,1 5.6,6.7 5.6,6.7 0,0 2.7,2.1 1.4,4.2 -1.3,2.1 -3.5,-0.2 -3.5,-0.2 0,0 -4.9,-6.2 -6.7,-6.9 -1.7,-0.7 0,4 1.3,8.1 1.2,4.2 -0.5,4 -1.3,3.9 -1.6,-0.1 -1.8,-2.1 -3,-5.2 -1.200005,-3.1 -1.200005,-4.2 -2.200005,-4.9 -1,-0.7 -2.1,0.4 -2.1,2.9 0,2.5 0.5,4.9 -1.7,4.8 -2.2,-0.1 -1.1,-4.9 -1.8,-7.2 -0.7,-2.1 -1,-2.8 -3.2,-5.8 -2.4,-3.3 -2.2,-5.4 -2.2,-9.6 0,-4.2 -1.2,-8.4 -2.7,-10.7 -1.5,-2.3 -5.7,-9.3 -14.000001,-8 -8.3,1.3 -1.7,7.6 -1.7,7.6 0,0 6.7,5.2 8.600001,17.8 1.8,12.7 5,14.9 5,14.9 0,0 7.5,10.6 19.800005,11.4 12.4,0.8 20.6,-9.1 24.5,-16.8 3.9,-7.7 12.79999,-11.7 19.1,-13.6 6.199997,-1.9 5.299997,-6.2 5.299997,-7.7 z"
     id="path1"
     style="fill:#ffffff" />
</svg>
